<svg xmlns="http://www.w3.org/2000/svg" version="1.1" xmlns:xlink="http://www.w3.org/1999/xlink" xmlns:svgjs="http://svgjs.dev/svgjs" width="1000" height="292" viewBox="0 0 1000 292"><g transform="matrix(1,0,0,1,-0.6060606060606233,0.050035848006302786)"><svg viewBox="0 0 396 116" data-background-color="#ffffff" preserveAspectRatio="xMidYMid meet" height="292" width="1000" xmlns="http://www.w3.org/2000/svg" xmlns:xlink="http://www.w3.org/1999/xlink"><g id="tight-bounds" transform="matrix(1,0,0,1,0.2400000000000091,-0.019877133694620852)"><svg viewBox="0 0 395.52 116.03975438838205" height="116.03975438838205" width="395.52"><g><svg viewBox="0 0 395.52 116.03975438838205" height="116.03975438838205" width="395.52"><g transform="matrix(1,0,0,1,0,87.03036696964749)"><svg viewBox="0 0 395.52 29.009387418734555" height="29.009387418734555" width="395.52"><g id="textblocktransform"><svg viewBox="0 0 395.52 29.009387418734555" height="29.009387418734555" width="395.52" id="textblock"><g><svg viewBox="0 0 395.52 29.009387418734555" height="29.009387418734555" width="395.52"><g transform="matrix(1,0,0,1,0,0)"><svg width="395.52" viewBox="5 -39.54999923706055 551.4810791015625 40.04999923706055" height="29.009387418734555" data-palette-color="#755bb4"><g class="wordmark-text-0" data-fill-palette-color="primary" id="text-0"><path d="M6.95 0L6.95 0Q6.1 0 5.55-0.55 5-1.1 5-1.95L5-1.95 5-37.1Q5-37.95 5.55-38.5 6.1-39.05 6.95-39.05L6.95-39.05Q7.85-39.05 8.45-38.35L8.45-38.35 32.35-6.95 32.35-37.1Q32.35-37.95 32.9-38.5 33.45-39.05 34.3-39.05L34.3-39.05Q35.1-39.05 35.68-38.5 36.25-37.95 36.25-37.1L36.25-37.1 36.25-1.95Q36.25-1.1 35.68-0.55 35.1 0 34.3 0L34.3 0Q33.9 0 33.5-0.15 33.1-0.3 32.85-0.65L32.85-0.65 8.9-32.05 8.9-1.95Q8.9-1.1 8.33-0.55 7.75 0 6.95 0ZM64.3 0.5L64.3 0.5Q59.95 0.5 56.3-1 52.65-2.5 49.97-5.2 47.3-7.9 45.82-11.55 44.35-15.2 44.35-19.55L44.35-19.55Q44.35-23.85 45.82-27.5 47.3-31.15 49.97-33.85 52.65-36.55 56.3-38.05 59.95-39.55 64.3-39.55L64.3-39.55Q68.6-39.55 72.25-38.05 75.9-36.55 78.6-33.85 81.3-31.15 82.77-27.5 84.25-23.85 84.25-19.55L84.25-19.55Q84.25-15.2 82.77-11.55 81.3-7.9 78.6-5.2 75.9-2.5 72.25-1 68.6 0.5 64.3 0.5ZM64.3-3.2L64.3-3.2Q67.75-3.2 70.7-4.42 73.65-5.65 75.82-7.88 78-10.1 79.2-13.08 80.4-16.05 80.4-19.55L80.4-19.55Q80.4-23 79.2-25.98 78-28.95 75.82-31.18 73.65-33.4 70.7-34.63 67.75-35.85 64.3-35.85L64.3-35.85Q60.8-35.85 57.85-34.63 54.9-33.4 52.72-31.18 50.55-28.95 49.35-25.98 48.15-23 48.15-19.55L48.15-19.55Q48.15-16.05 49.35-13.08 50.55-10.1 52.72-7.88 54.9-5.65 57.85-4.42 60.8-3.2 64.3-3.2ZM104.3 0.5L104.3 0.5Q101.1 0.5 98.37-0.43 95.65-1.35 93.65-3.05 91.65-4.75 90.6-7L90.6-7Q90.2-7.8 90.57-8.47 90.95-9.15 91.85-9.4L91.85-9.4Q92.55-9.6 93.22-9.25 93.9-8.9 94.25-8.2L94.25-8.2Q95-6.75 96.45-5.6 97.9-4.45 99.9-3.83 101.9-3.2 104.3-3.2L104.3-3.2Q106.95-3.2 109-4.08 111.05-4.95 112.22-6.63 113.4-8.3 113.4-10.7L113.4-10.7Q113.4-13.75 111.15-15.95 108.9-18.15 104.1-18.75L104.1-18.75Q98.25-19.45 94.95-22.38 91.65-25.3 91.65-29.55L91.65-29.55Q91.65-32.6 93.27-34.85 94.9-37.1 97.75-38.33 100.6-39.55 104.3-39.55L104.3-39.55Q107.05-39.55 109.3-38.68 111.55-37.8 113.22-36.38 114.9-34.95 115.95-33.25L115.95-33.25Q116.45-32.45 116.27-31.7 116.1-30.95 115.4-30.55L115.4-30.55Q114.65-30.2 113.87-30.45 113.1-30.7 112.7-31.4L112.7-31.4Q111.95-32.55 110.82-33.58 109.7-34.6 108.1-35.2 106.5-35.8 104.25-35.85L104.25-35.85Q100.3-35.85 97.9-34.18 95.5-32.5 95.5-29.3L95.5-29.3Q95.5-27.6 96.4-26.18 97.3-24.75 99.37-23.73 101.45-22.7 104.95-22.2L104.95-22.2Q111.2-21.3 114.22-18.38 117.25-15.45 117.25-10.75L117.25-10.75Q117.25-8.05 116.27-5.95 115.3-3.85 113.52-2.43 111.75-1 109.37-0.25 107 0.5 104.3 0.5ZM136.74 0L136.74 0Q135.94 0 135.37-0.58 134.79-1.15 134.79-1.95L134.79-1.95 134.79-39.05 138.69-39.05 138.69-1.95Q138.69-1.15 138.14-0.58 137.59 0 136.74 0ZM150.59-35.5L122.94-35.5Q122.14-35.5 121.64-36 121.14-36.5 121.14-37.25L121.14-37.25Q121.14-38.05 121.64-38.55 122.14-39.05 122.94-39.05L122.94-39.05 150.59-39.05Q151.39-39.05 151.89-38.55 152.39-38.05 152.39-37.25L152.39-37.25Q152.39-36.5 151.89-36 151.39-35.5 150.59-35.5L150.59-35.5ZM160.09 0L160.09 0Q159.24 0 158.69-0.55 158.14-1.1 158.14-1.95L158.14-1.95 158.14-37.1Q158.14-37.95 158.69-38.5 159.24-39.05 160.09-39.05L160.09-39.05 169.44-39.05Q173.09-39.05 175.94-37.52 178.79-36 180.42-33.27 182.04-30.55 182.04-27L182.04-27Q182.04-23.6 180.42-20.95 178.79-18.3 175.94-16.8 173.09-15.3 169.44-15.3L169.44-15.3 162.04-15.3 162.04-1.95Q162.04-1.1 161.49-0.55 160.94 0 160.09 0ZM180.99 0L180.99 0Q180.34 0 179.97-0.25 179.59-0.5 179.29-1L179.29-1 169.69-16.3 173.59-17.3 182.54-3Q183.29-1.8 182.82-0.9 182.34 0 180.99 0ZM162.04-35.3L162.04-19.05 169.44-19.05Q171.99-19.05 173.97-20.08 175.94-21.1 177.09-22.9 178.24-24.7 178.24-27L178.24-27Q178.24-29.45 177.09-31.33 175.94-33.2 173.97-34.25 171.99-35.3 169.44-35.3L169.44-35.3 162.04-35.3Z" fill="#755bb4" data-fill-palette-color="primary"></path><path d="M214.651 0.5L214.651 0.5Q211.451 0.5 208.721-0.43 206.001-1.35 204.001-3.05 202.001-4.75 200.951-7L200.951-7Q200.551-7.8 200.921-8.47 201.301-9.15 202.201-9.4L202.201-9.4Q202.901-9.6 203.571-9.25 204.251-8.9 204.601-8.2L204.601-8.2Q205.351-6.75 206.801-5.6 208.251-4.45 210.251-3.83 212.251-3.2 214.651-3.2L214.651-3.2Q217.301-3.2 219.351-4.08 221.401-4.95 222.571-6.63 223.751-8.3 223.751-10.7L223.751-10.7Q223.751-13.75 221.501-15.95 219.251-18.15 214.451-18.75L214.451-18.75Q208.601-19.45 205.301-22.38 202.001-25.3 202.001-29.55L202.001-29.55Q202.001-32.6 203.621-34.85 205.251-37.1 208.101-38.33 210.951-39.55 214.651-39.55L214.651-39.55Q217.401-39.55 219.651-38.68 221.901-37.8 223.571-36.38 225.251-34.95 226.301-33.25L226.301-33.25Q226.801-32.45 226.621-31.7 226.451-30.95 225.751-30.55L225.751-30.55Q225.001-30.2 224.221-30.45 223.451-30.7 223.051-31.4L223.051-31.4Q222.301-32.55 221.171-33.58 220.051-34.6 218.451-35.2 216.851-35.8 214.601-35.85L214.601-35.85Q210.651-35.85 208.251-34.18 205.851-32.5 205.851-29.3L205.851-29.3Q205.851-27.6 206.751-26.18 207.651-24.75 209.721-23.73 211.801-22.7 215.301-22.2L215.301-22.2Q221.551-21.3 224.571-18.38 227.601-15.45 227.601-10.75L227.601-10.75Q227.601-8.05 226.621-5.95 225.651-3.85 223.871-2.43 222.101-1 219.721-0.25 217.351 0.5 214.651 0.5ZM247.091 0L247.091 0Q246.301 0 245.721-0.58 245.151-1.15 245.151-1.95L245.151-1.95 245.151-39.05 249.051-39.05 249.051-1.95Q249.051-1.15 248.501-0.58 247.951 0 247.091 0ZM260.951-35.5L233.301-35.5Q232.501-35.5 232.001-36 231.501-36.5 231.501-37.25L231.501-37.25Q231.501-38.05 232.001-38.55 232.501-39.05 233.301-39.05L233.301-39.05 260.951-39.05Q261.751-39.05 262.251-38.55 262.751-38.05 262.751-37.25L262.751-37.25Q262.751-36.5 262.251-36 261.751-35.5 260.951-35.5L260.951-35.5ZM286.541 0.5L286.541 0.5Q282.191 0.5 278.541-1 274.891-2.5 272.221-5.2 269.541-7.9 268.071-11.55 266.591-15.2 266.591-19.55L266.591-19.55Q266.591-23.85 268.071-27.5 269.541-31.15 272.221-33.85 274.891-36.55 278.541-38.05 282.191-39.55 286.541-39.55L286.541-39.55Q290.841-39.55 294.491-38.05 298.141-36.55 300.841-33.85 303.541-31.15 305.021-27.5 306.491-23.85 306.491-19.55L306.491-19.55Q306.491-15.2 305.021-11.55 303.541-7.9 300.841-5.2 298.141-2.5 294.491-1 290.841 0.5 286.541 0.5ZM286.541-3.2L286.541-3.2Q289.991-3.2 292.941-4.42 295.891-5.65 298.071-7.88 300.241-10.1 301.441-13.08 302.641-16.05 302.641-19.55L302.641-19.55Q302.641-23 301.441-25.98 300.241-28.95 298.071-31.18 295.891-33.4 292.941-34.63 289.991-35.85 286.541-35.85L286.541-35.85Q283.041-35.85 280.091-34.63 277.141-33.4 274.971-31.18 272.791-28.95 271.591-25.98 270.391-23 270.391-19.55L270.391-19.55Q270.391-16.05 271.591-13.08 272.791-10.1 274.971-7.88 277.141-5.65 280.091-4.42 283.041-3.2 286.541-3.2ZM316.491 0L316.491 0Q315.641 0 315.091-0.55 314.541-1.1 314.541-1.95L314.541-1.95 314.541-37.1Q314.541-37.95 315.091-38.5 315.641-39.05 316.491-39.05L316.491-39.05 325.841-39.05Q329.491-39.05 332.341-37.52 335.191-36 336.821-33.27 338.441-30.55 338.441-27L338.441-27Q338.441-23.6 336.821-20.95 335.191-18.3 332.341-16.8 329.491-15.3 325.841-15.3L325.841-15.3 318.441-15.3 318.441-1.95Q318.441-1.1 317.891-0.55 317.341 0 316.491 0ZM337.391 0L337.391 0Q336.741 0 336.371-0.25 335.991-0.5 335.691-1L335.691-1 326.091-16.3 329.991-17.3 338.941-3Q339.691-1.8 339.221-0.9 338.741 0 337.391 0ZM318.441-35.3L318.441-19.05 325.841-19.05Q328.391-19.05 330.371-20.08 332.341-21.1 333.491-22.9 334.641-24.7 334.641-27L334.641-27Q334.641-29.45 333.491-31.33 332.341-33.2 330.371-34.25 328.391-35.3 325.841-35.3L325.841-35.3 318.441-35.3ZM370.841 0L347.391 0Q346.541 0 345.991-0.55 345.441-1.1 345.441-1.95L345.441-1.95 345.441-37.1Q345.441-37.95 345.991-38.5 346.541-39.05 347.391-39.05L347.391-39.05 370.841-39.05Q371.641-39.05 372.211-38.53 372.791-38 372.791-37.15L372.791-37.15Q372.791-36.4 372.211-35.85 371.641-35.3 370.841-35.3L370.841-35.3 349.341-35.3 349.341-21.5 364.991-21.5Q365.841-21.5 366.391-20.95 366.941-20.4 366.941-19.6L366.941-19.6Q366.941-18.8 366.391-18.25 365.841-17.7 364.991-17.7L364.991-17.7 349.341-17.7 349.341-3.75 370.841-3.75Q371.641-3.75 372.211-3.2 372.791-2.65 372.791-1.9L372.791-1.9Q372.791-1.05 372.211-0.53 371.641 0 370.841 0L370.841 0ZM378.891 0L378.891 0Q378.091 0 377.511-0.58 376.941-1.15 376.941-1.95L376.941-1.95 376.941-37.1Q376.941-37.95 377.491-38.5 378.041-39.05 378.891-39.05L378.891-39.05 402.341-39.05Q403.191-39.05 403.741-38.53 404.291-38 404.291-37.15L404.291-37.15Q404.291-36.4 403.741-35.85 403.191-35.3 402.341-35.3L402.341-35.3 380.841-35.3 380.841-21.5 396.491-21.5Q397.341-21.5 397.891-20.95 398.441-20.4 398.441-19.6L398.441-19.6Q398.441-18.8 397.891-18.25 397.341-17.7 396.491-17.7L396.491-17.7 380.841-17.7 380.841-1.95Q380.841-1.15 380.291-0.58 379.741 0 378.891 0ZM413.231 0L413.231 0Q412.381 0 411.831-0.55 411.281-1.1 411.281-1.95L411.281-1.95 411.281-37.1Q411.281-37.95 411.831-38.5 412.381-39.05 413.231-39.05L413.231-39.05 422.581-39.05Q426.231-39.05 429.081-37.52 431.931-36 433.561-33.27 435.181-30.55 435.181-27L435.181-27Q435.181-23.6 433.561-20.95 431.931-18.3 429.081-16.8 426.231-15.3 422.581-15.3L422.581-15.3 415.181-15.3 415.181-1.95Q415.181-1.1 414.631-0.55 414.081 0 413.231 0ZM434.131 0L434.131 0Q433.481 0 433.111-0.25 432.731-0.5 432.431-1L432.431-1 422.831-16.3 426.731-17.3 435.681-3Q436.431-1.8 435.961-0.9 435.481 0 434.131 0ZM415.181-35.3L415.181-19.05 422.581-19.05Q425.131-19.05 427.111-20.08 429.081-21.1 430.231-22.9 431.381-24.7 431.381-27L431.381-27Q431.381-29.45 430.231-31.33 429.081-33.2 427.111-34.25 425.131-35.3 422.581-35.3L422.581-35.3 415.181-35.3ZM460.231 0.5L460.231 0.5Q455.881 0.5 452.231-1 448.581-2.5 445.911-5.2 443.231-7.9 441.761-11.55 440.281-15.2 440.281-19.55L440.281-19.55Q440.281-23.85 441.761-27.5 443.231-31.15 445.911-33.85 448.581-36.55 452.231-38.05 455.881-39.55 460.231-39.55L460.231-39.55Q464.531-39.55 468.181-38.05 471.831-36.55 474.531-33.85 477.231-31.15 478.711-27.5 480.181-23.85 480.181-19.55L480.181-19.55Q480.181-15.2 478.711-11.55 477.231-7.9 474.531-5.2 471.831-2.5 468.181-1 464.531 0.5 460.231 0.5ZM460.231-3.2L460.231-3.2Q463.681-3.2 466.631-4.42 469.581-5.65 471.761-7.88 473.931-10.1 475.131-13.08 476.331-16.05 476.331-19.55L476.331-19.55Q476.331-23 475.131-25.98 473.931-28.95 471.761-31.18 469.581-33.4 466.631-34.63 463.681-35.85 460.231-35.85L460.231-35.85Q456.731-35.85 453.781-34.63 450.831-33.4 448.661-31.18 446.481-28.95 445.281-25.98 444.081-23 444.081-19.55L444.081-19.55Q444.081-16.05 445.281-13.08 446.481-10.1 448.661-7.88 450.831-5.65 453.781-4.42 456.731-3.2 460.231-3.2ZM490.181 0L490.181 0Q489.331 0 488.781-0.55 488.231-1.1 488.231-1.95L488.231-1.95 488.231-37.1Q488.231-37.95 488.781-38.5 489.331-39.05 490.181-39.05L490.181-39.05Q491.081-39.05 491.681-38.35L491.681-38.35 515.581-6.95 515.581-37.1Q515.581-37.95 516.131-38.5 516.681-39.05 517.531-39.05L517.531-39.05Q518.331-39.05 518.901-38.5 519.481-37.95 519.481-37.1L519.481-37.1 519.481-1.95Q519.481-1.1 518.901-0.55 518.331 0 517.531 0L517.531 0Q517.131 0 516.731-0.15 516.331-0.3 516.081-0.65L516.081-0.65 492.131-32.05 492.131-1.95Q492.131-1.1 491.551-0.55 490.981 0 490.181 0ZM540.831 0L540.831 0Q540.031 0 539.451-0.58 538.881-1.15 538.881-1.95L538.881-1.95 538.881-39.05 542.781-39.05 542.781-1.95Q542.781-1.15 542.231-0.58 541.681 0 540.831 0ZM554.681-35.5L527.031-35.5Q526.231-35.5 525.731-36 525.231-36.5 525.231-37.25L525.231-37.25Q525.231-38.05 525.731-38.55 526.231-39.05 527.031-39.05L527.031-39.05 554.681-39.05Q555.481-39.05 555.981-38.55 556.481-38.05 556.481-37.25L556.481-37.25Q556.481-36.5 555.981-36 555.481-35.5 554.681-35.5L554.681-35.5Z" fill="#755bb4" data-fill-palette-color="primary"></path></g></svg></g></svg></g></svg></g></svg></g><g transform="matrix(1,0,0,1,157.81165614743574,0)"><svg viewBox="0 0 79.8966877051285 80.18194682538231" height="80.18194682538231" width="79.8966877051285"><g><svg xmlns="http://www.w3.org/2000/svg" xmlns:xlink="http://www.w3.org/1999/xlink" version="1.1" x="0" y="0" viewBox="0.46862921118736267 0.30000007152557373 47.23136901855469 47.400001525878906" enable-background="new 0 0 48 48" xml:space="preserve" height="80.18194682538231" width="79.8966877051285" class="icon-icon-0" data-fill-palette-color="accent" id="icon-0"><g fill="#755bb4" data-fill-palette-color="accent"><g fill="#755bb4" data-fill-palette-color="accent"><g fill="#755bb4" data-fill-palette-color="accent"><path fill="#755bb4" d="M45.6 17.8C45.5 17.8 45.5 17.8 45.6 17.8H2.4c-0.6 0-1.2-0.3-1.6-0.8-0.4-0.5-0.4-1.2-0.2-1.8L5.8 1.6c0.3-0.8 1-1.3 1.8-1.3h32.7c0.8 0 1.5 0.5 1.8 1.3l5.1 13.3c0.2 0.3 0.2 0.6 0.2 0.9C47.5 17 46.6 17.8 45.6 17.8zM5.3 13.9h37.4L39 4.3H9L5.3 13.9z" data-fill-palette-color="accent"></path></g><g fill="#755bb4" data-fill-palette-color="accent"><g fill="#755bb4" data-fill-palette-color="accent"><path fill="#755bb4" d="M10 30H9.2c-4.8 0-8.7-3.9-8.7-8.7v-5.3c0-1.1 0.9-2 2-2h14.4c1.1 0 2 0.9 2 2v5.3C18.8 26 14.8 30 10 30zM4.4 17.8v3.4c0 2.7 2.2 4.8 4.8 4.8H10c2.7 0 4.8-2.2 4.8-4.8v-3.4H4.4z" data-fill-palette-color="accent"></path></g><g fill="#755bb4" data-fill-palette-color="accent"><path fill="#755bb4" d="M24.4 30h-0.8c-4.8 0-8.7-3.9-8.7-8.7v-5.3c0-1.1 0.9-2 2-2h14.4c1.1 0 2 0.9 2 2v5.3C33.1 26 29.2 30 24.4 30zM18.8 17.8v3.4c0 2.7 2.2 4.8 4.8 4.8h0.8c2.7 0 4.8-2.2 4.8-4.8v-3.4H18.8z" data-fill-palette-color="accent"></path></g><g fill="#755bb4" data-fill-palette-color="accent"><path fill="#755bb4" d="M38.8 30H38c-4.8 0-8.7-3.9-8.7-8.7v-5.3c0-1.1 0.9-2 2-2h14.4c1.1 0 2 0.9 2 2v5.3C47.5 26 43.6 30 38.8 30zM33.1 17.8v3.4c0 2.7 2.2 4.8 4.8 4.8h0.8c2.7 0 4.8-2.2 4.8-4.8v-3.4H33.1z" data-fill-palette-color="accent"></path></g></g><g fill="#755bb4" data-fill-palette-color="accent"><path fill="#755bb4" d="M43.5 47.6H4.5c-1.1 0-2-0.9-2-2V26.4c0-1.1 0.9-2 2-2s2 0.9 2 2v17.2h35.2V26.9c0-1.1 0.9-2 2-2s2 0.9 2 2v18.7C45.5 46.7 44.6 47.6 43.5 47.6z" data-fill-palette-color="accent"></path></g></g><g fill="#755bb4" data-fill-palette-color="accent"><path fill="#755bb4" d="M29.5 47.7h-11c-1.1 0-2-0.9-2-2V34.4c0-1.1 0.9-2 2-2h11c1.1 0 2 0.9 2 2v11.3C31.4 46.8 30.6 47.7 29.5 47.7zM20.5 43.7h7.1v-7.4h-7.1V43.7z" data-fill-palette-color="accent"></path></g></g></svg></g></svg></g><g></g></svg></g><defs></defs></svg><rect width="395.52" height="116.03975438838205" fill="none" stroke="none" visibility="hidden"></rect></g></svg></g></svg>